<mxfile host="app.diagrams.net" modified="2023-06-07T00:48:15.937Z" agent="Mozilla/5.0 (Windows NT 10.0; Win64; x64) AppleWebKit/537.36 (KHTML, like Gecko) Chrome/114.0.0.0 Safari/537.36" etag="oK0DUWkMEoVXVPYVsQ76" version="21.3.6" type="device">
  <diagram name="페이지-1" id="TtdwoSMQxV3BxZLRvthc">
    <mxGraphModel dx="1434" dy="788" grid="1" gridSize="10" guides="1" tooltips="1" connect="1" arrows="1" fold="1" page="1" pageScale="1" pageWidth="4681" pageHeight="3300" math="0" shadow="0">
      <root>
        <mxCell id="0" />
        <mxCell id="1" parent="0" />
        <mxCell id="QbWiYmPNT61i1CYAerLz-6" style="edgeStyle=orthogonalEdgeStyle;rounded=0;orthogonalLoop=1;jettySize=auto;html=1;entryX=0;entryY=0.5;entryDx=0;entryDy=0;" edge="1" parent="1" source="QbWiYmPNT61i1CYAerLz-1" target="QbWiYmPNT61i1CYAerLz-2">
          <mxGeometry relative="1" as="geometry" />
        </mxCell>
        <mxCell id="QbWiYmPNT61i1CYAerLz-1" value="관리자" style="shape=umlActor;verticalLabelPosition=bottom;verticalAlign=top;html=1;outlineConnect=0;" vertex="1" parent="1">
          <mxGeometry x="250" y="120" width="70" height="140" as="geometry" />
        </mxCell>
        <mxCell id="QbWiYmPNT61i1CYAerLz-7" style="edgeStyle=orthogonalEdgeStyle;rounded=0;orthogonalLoop=1;jettySize=auto;html=1;entryX=0;entryY=0.5;entryDx=0;entryDy=0;" edge="1" parent="1" source="QbWiYmPNT61i1CYAerLz-2" target="QbWiYmPNT61i1CYAerLz-3">
          <mxGeometry relative="1" as="geometry" />
        </mxCell>
        <mxCell id="QbWiYmPNT61i1CYAerLz-8" style="edgeStyle=orthogonalEdgeStyle;rounded=0;orthogonalLoop=1;jettySize=auto;html=1;entryX=0;entryY=0.5;entryDx=0;entryDy=0;" edge="1" parent="1" source="QbWiYmPNT61i1CYAerLz-2" target="QbWiYmPNT61i1CYAerLz-4">
          <mxGeometry relative="1" as="geometry" />
        </mxCell>
        <mxCell id="QbWiYmPNT61i1CYAerLz-9" style="edgeStyle=orthogonalEdgeStyle;rounded=0;orthogonalLoop=1;jettySize=auto;html=1;entryX=0;entryY=0.5;entryDx=0;entryDy=0;" edge="1" parent="1" source="QbWiYmPNT61i1CYAerLz-2" target="QbWiYmPNT61i1CYAerLz-5">
          <mxGeometry relative="1" as="geometry" />
        </mxCell>
        <mxCell id="QbWiYmPNT61i1CYAerLz-2" value="거래처 리스트 보기" style="ellipse;whiteSpace=wrap;html=1;" vertex="1" parent="1">
          <mxGeometry x="380" y="150" width="120" height="80" as="geometry" />
        </mxCell>
        <mxCell id="QbWiYmPNT61i1CYAerLz-11" style="edgeStyle=orthogonalEdgeStyle;rounded=0;orthogonalLoop=1;jettySize=auto;html=1;entryX=-0.008;entryY=0.573;entryDx=0;entryDy=0;entryPerimeter=0;" edge="1" parent="1" source="QbWiYmPNT61i1CYAerLz-3" target="QbWiYmPNT61i1CYAerLz-10">
          <mxGeometry relative="1" as="geometry" />
        </mxCell>
        <mxCell id="QbWiYmPNT61i1CYAerLz-3" value="거래처 추가" style="ellipse;whiteSpace=wrap;html=1;" vertex="1" parent="1">
          <mxGeometry x="580" y="120" width="120" height="80" as="geometry" />
        </mxCell>
        <mxCell id="QbWiYmPNT61i1CYAerLz-12" style="edgeStyle=orthogonalEdgeStyle;rounded=0;orthogonalLoop=1;jettySize=auto;html=1;entryX=-0.008;entryY=0.564;entryDx=0;entryDy=0;entryPerimeter=0;" edge="1" parent="1" source="QbWiYmPNT61i1CYAerLz-4" target="QbWiYmPNT61i1CYAerLz-10">
          <mxGeometry relative="1" as="geometry" />
        </mxCell>
        <mxCell id="QbWiYmPNT61i1CYAerLz-4" value="거래처 상세보기" style="ellipse;whiteSpace=wrap;html=1;" vertex="1" parent="1">
          <mxGeometry x="580" y="220" width="120" height="80" as="geometry" />
        </mxCell>
        <mxCell id="QbWiYmPNT61i1CYAerLz-13" style="edgeStyle=orthogonalEdgeStyle;rounded=0;orthogonalLoop=1;jettySize=auto;html=1;entryX=0;entryY=0.6;entryDx=0;entryDy=0;entryPerimeter=0;" edge="1" parent="1" source="QbWiYmPNT61i1CYAerLz-5" target="QbWiYmPNT61i1CYAerLz-10">
          <mxGeometry relative="1" as="geometry" />
        </mxCell>
        <mxCell id="QbWiYmPNT61i1CYAerLz-5" value="거래처 수정" style="ellipse;whiteSpace=wrap;html=1;" vertex="1" parent="1">
          <mxGeometry x="580" y="320" width="120" height="80" as="geometry" />
        </mxCell>
        <mxCell id="QbWiYmPNT61i1CYAerLz-10" value="거래처 정보 Table" style="shape=cylinder3;whiteSpace=wrap;html=1;boundedLbl=1;backgroundOutline=1;size=15;" vertex="1" parent="1">
          <mxGeometry x="890" y="200" width="130" height="110" as="geometry" />
        </mxCell>
      </root>
    </mxGraphModel>
  </diagram>
</mxfile>
